<svg width="23" height="23" viewBox="0 0 23 23" fill="none" xmlns="http://www.w3.org/2000/svg">
<path d="M19.25 11.25V21.25H3.25V11.25M11.25 21.25V6.25M11.25 6.25H6.75C6.08696 6.25 5.45107 5.98661 4.98223 5.51777C4.51339 5.04893 4.25 4.41304 4.25 3.75C4.25 3.08696 4.51339 2.45107 4.98223 1.98223C5.45107 1.51339 6.08696 1.25 6.75 1.25C10.25 1.25 11.25 6.25 11.25 6.25ZM11.25 6.25H15.75C16.413 6.25 17.0489 5.98661 17.5178 5.51777C17.9866 5.04893 18.25 4.41304 18.25 3.75C18.25 3.08696 17.9866 2.45107 17.5178 1.98223C17.0489 1.51339 16.413 1.25 15.75 1.25C12.25 1.25 11.25 6.25 11.25 6.25ZM1.25 6.25H21.25V11.25H1.25V6.25Z" stroke="#92455A" stroke-width="2.5" stroke-linecap="round" stroke-linejoin="round"/>
</svg>
